External Loads File
version=1
nRows=39
nColumns=13
Range=5.000000e-03-10 seconds
endheader
time 	forceRightX 	forceRightY 	forceRightZ 	pointRightX 	pointRightY 	pointRightZ 	forceLeftX 	forceLeftY 	forceLeftZ 	pointLeftX 	pointLeftY 	pointLeftZ 		
2.505000 98.642993 501.021702 -0.000000 0.420669 0.361953 -0.131234 104.812176 -0.337824 -0.000000 0.134515 0.285957 -0.380152
2.510000 96.818833 505.892239 -0.000000 0.421194 0.357690 -0.131254 103.054983 -10.903475 -0.000000 0.134743 0.289695 -0.380047
2.515000 94.245283 513.155059 -0.000000 0.421714 0.353406 -0.131316 101.811665 -21.812662 -0.000000 0.135128 0.293491 -0.379986
2.520000 91.479886 522.655651 -0.000000 0.422047 0.349067 -0.131234 100.885832 -33.106050 -0.000000 0.135614 0.297475 -0.379965
2.525000 88.235157 534.325094 -0.000000 0.422323 0.344630 -0.131188 100.066364 -44.505511 -0.000000 0.136087 0.301244 -0.379984
2.530000 85.184334 547.901510 -0.000000 0.422520 0.340149 -0.131124 99.029767 -55.792061 -0.000000 0.136650 0.305164 -0.379885
2.535000 81.891269 563.324259 -0.000000 0.422557 0.335707 -0.131051 97.552739 -66.464543 -0.000000 0.137322 0.309056 -0.379807
2.540000 78.782467 580.462440 -0.000000 0.422412 0.331224 -0.130953 95.397040 -76.164063 -0.000000 0.138106 0.313081 -0.379729
2.545000 75.596091 599.368333 -0.000000 0.422212 0.326661 -0.130812 92.498298 -84.431088 -0.000000 0.138941 0.317124 -0.379577
2.550000 72.144929 620.083477 -0.000000 0.421951 0.321985 -0.130712 88.922959 -90.873811 -0.000000 0.139892 0.321145 -0.379421
2.555000 67.656294 642.656810 -0.000000 0.421587 0.317419 -0.130533 84.968105 -95.142439 -0.000000 0.140911 0.325064 -0.379216
2.560000 62.811543 666.992597 -0.000000 0.421118 0.312817 -0.130435 80.809559 -97.283759 -0.000000 0.141967 0.329072 -0.379064
2.565000 57.158816 693.219596 -0.000000 0.420547 0.308194 -0.130203 76.825387 -97.385993 -0.000000 0.143146 0.333002 -0.378925
2.570000 50.694044 721.478562 -0.000000 0.420006 0.303567 -0.129993 73.313991 -95.750113 -0.000000 0.144441 0.336885 -0.378827
2.575000 43.534994 751.896365 -0.000000 0.419131 0.298994 -0.130261 70.488422 -92.781773 -0.000000 0.145656 0.340768 -0.378193
2.580000 36.575202 784.510407 -0.000000 0.418388 0.294278 -0.130345 68.365625 -88.983611 -0.000000 0.147134 0.344721 -0.378150
2.585000 29.341205 819.358625 -0.000000 0.417776 0.289510 -0.130280 67.024448 -84.701437 -0.000000 0.148736 0.348579 -0.378177
2.590000 22.659017 856.351120 -0.000000 0.416624 0.284814 -0.130026 66.310219 -80.344904 -0.000000 0.150287 0.352527 -0.378061
2.595000 16.248936 895.409314 -0.000000 0.415422 0.279990 -0.130498 66.129214 -76.173173 -0.000000 0.152063 0.356183 -0.378076
2.600000 11.975978 936.381702 -0.000000 0.414269 0.275163 -0.130658 66.180307 -72.527215 -0.000000 0.153966 0.360223 -0.378216
2.605000 7.499512 979.112847 -0.000000 0.413085 0.270367 -0.130669 66.512816 -69.359827 -0.000000 0.155944 0.363871 -0.378295
2.610000 5.471524 1023.299087 -0.000000 0.411666 0.265711 -0.130718 66.813056 -66.910875 -0.000000 0.157998 0.367900 -0.378360
2.615000 5.231143 1068.623760 -0.000000 0.410135 0.260896 -0.130793 67.048278 -65.135078 -0.000000 0.160300 0.371711 -0.378344
2.620000 7.523149 1114.719693 -0.000000 0.408331 0.256095 -0.130500 67.098007 -64.040495 -0.000000 0.162657 0.375630 -0.378295
2.625000 11.148821 1161.206715 -0.000000 0.406759 0.251312 -0.130790 66.935628 -63.499991 -0.000000 0.165089 0.379552 -0.378243
2.630000 16.741756 1207.719391 -0.000000 0.404910 0.246575 -0.130857 66.379328 -63.508544 -0.000000 0.167656 0.383399 -0.378219
2.635000 25.260724 1253.950811 -0.000000 0.402707 0.241866 -0.130624 65.199990 -64.079421 -0.000000 0.170447 0.387290 -0.378223
2.640000 34.137981 1299.793445 -0.000000 0.400597 0.237214 -0.130724 63.341828 -65.036488 -0.000000 0.173197 0.391065 -0.378077
2.645000 44.851650 1345.238293 -0.000000 0.398332 0.232684 -0.130852 60.549179 -66.416085 -0.000000 0.176246 0.394870 -0.378096
2.650000 56.669106 1390.380793 -0.000000 0.395899 0.228075 -0.130900 56.709359 -68.131277 -0.000000 0.179325 0.398553 -0.377965
2.655000 67.534732 1435.276236 -0.000000 0.393683 0.223677 -0.131346 51.837012 -70.031085 -0.000000 0.182567 0.402151 -0.377795
2.660000 82.158675 1479.459071 -0.000000 0.390728 0.219227 -0.131255 45.687580 -72.193360 -0.000000 0.185952 0.405818 -0.377767
2.665000 95.880532 1522.688724 -0.000000 0.387975 0.214853 -0.131382 38.519366 -74.348531 -0.000000 0.189542 0.409254 -0.377669
2.670000 109.668910 1564.268334 -0.000000 0.385283 0.210562 -0.131667 30.344591 -76.425647 -0.000000 0.193231 0.412735 -0.377573
2.675000 125.468666 1603.250327 -0.000000 0.381897 0.206359 -0.131474 21.162743 -78.340647 -0.000000 0.197009 0.415983 -0.377491
2.680000 141.293200 1638.875021 -0.000000 0.378755 0.202165 -0.131953 11.216200 -79.954188 -0.000000 0.201020 0.419222 -0.377379
2.685000 157.394082 1670.179271 -0.000000 0.375532 0.198086 -0.132031 0.703726 -81.180676 -0.000000 0.205094 0.422434 -0.377264
2.690000 174.065999 1696.205573 -0.000000 0.371968 0.194358 -0.132158 -10.109464 -81.867913 -0.000000 0.209208 0.425585 -0.377136
2.695000 191.688674 1716.075208 -0.000000 0.368498 0.190577 -0.132378 -20.899993 -81.746834 -0.000000 0.213453 0.428858 -0.377051
